<svg width="32" height="32" viewBox="0 0 32 32" fill="none" xmlns="http://www.w3.org/2000/svg">
  <path d="M10.2016 2.09785C8.71201 2.16814 7.69475 2.40586 6.80545 2.75531C5.88507 3.114 5.10497 3.59533 4.32879 4.3743C3.55262 5.15328 3.07465 5.93394 2.71848 6.85572C2.37379 7.74698 2.14027 8.76508 2.07446 10.2556C2.00866 11.746 1.9941 12.2251 2.00138 16.027C2.00866 19.829 2.02546 20.3055 2.0977 21.7991C2.16883 23.2884 2.40571 24.3054 2.75516 25.195C3.11441 26.1154 3.59518 26.8952 4.37443 27.6716C5.15369 28.4481 5.93379 28.925 6.85781 29.2817C7.74823 29.6258 8.76661 29.8605 10.2568 29.9257C11.747 29.9909 12.2266 30.0061 16.0274 29.9988C19.8283 29.9915 20.3068 29.9747 21.8001 29.9039C23.2933 29.833 24.305 29.5944 25.1948 29.2467C26.1152 28.8866 26.8956 28.4067 27.6715 27.6271C28.4474 26.8476 28.9251 26.0664 29.281 25.144C29.6259 24.2536 29.8603 23.2352 29.925 21.7462C29.9902 20.2518 30.0056 19.7746 29.9984 15.9733C29.9911 12.1719 29.974 11.6953 29.9031 10.2023C29.8323 8.70936 29.5951 7.69546 29.246 6.80532C28.8862 5.88494 28.406 5.10568 27.627 4.32866C26.848 3.55165 26.0662 3.07423 25.1442 2.71919C24.2532 2.3745 23.2354 2.13957 21.7452 2.07517C20.255 2.01077 19.7753 1.99425 15.9731 2.00153C12.1709 2.00881 11.6949 2.02505 10.2016 2.09785ZM10.3652 27.407C9.00013 27.3477 8.25896 27.1209 7.76503 26.931C7.11093 26.679 6.645 26.3744 6.15275 25.8869C5.6605 25.3994 5.3581 24.9318 5.10273 24.2791C4.91093 23.7852 4.67992 23.0448 4.61608 21.6798C4.54664 20.2044 4.53208 19.7615 4.52396 16.0237C4.51584 12.2859 4.53012 11.8435 4.5948 10.3676C4.65304 9.00364 4.88124 8.26163 5.07081 7.76798C5.32281 7.11304 5.62634 6.64795 6.11495 6.15598C6.60356 5.66401 7.06977 5.36104 7.72303 5.10568C8.2164 4.91303 8.95673 4.68399 10.3212 4.61903C11.7977 4.54903 12.2401 4.53503 15.9773 4.52691C19.7146 4.51879 20.1581 4.53279 21.6351 4.59775C22.999 4.65711 23.7413 4.88307 24.2344 5.07376C24.8888 5.32576 25.3545 5.62845 25.8464 6.1179C26.3384 6.60735 26.6416 7.07188 26.897 7.72654C27.0899 8.21851 27.319 8.95856 27.3834 10.3239C27.4537 11.8003 27.4696 12.243 27.4763 15.98C27.4831 19.717 27.4699 20.1608 27.4052 21.6361C27.3456 23.0011 27.1193 23.7426 26.9292 24.2371C26.6772 24.8909 26.3734 25.3571 25.8845 25.8488C25.3956 26.3405 24.93 26.6435 24.2764 26.8988C23.7836 27.0912 23.0424 27.3208 21.6791 27.3858C20.2026 27.4552 19.7602 27.4698 16.0216 27.4779C12.2829 27.486 11.8419 27.4709 10.3654 27.407M21.7785 8.51755C21.779 8.84986 21.8781 9.17453 22.0632 9.45052C22.2483 9.7265 22.5111 9.94139 22.8183 10.068C23.1256 10.1947 23.4634 10.2273 23.7892 10.1619C24.115 10.0965 24.4141 9.93594 24.6487 9.70053C24.8832 9.46513 25.0427 9.16546 25.1069 8.83942C25.1711 8.51338 25.1372 8.17562 25.0094 7.86885C24.8817 7.56209 24.6658 7.3001 24.3892 7.11603C24.1125 6.93195 23.7875 6.83405 23.4552 6.83472C23.0097 6.83561 22.5828 7.01339 22.2684 7.32896C21.954 7.64454 21.7777 8.07208 21.7785 8.51755ZM8.81141 16.0142C8.81925 19.9846 12.0438 23.196 16.0134 23.1885C19.9831 23.1809 23.1967 19.9566 23.1892 15.9862C23.1816 12.0157 19.9562 8.80344 15.986 8.81128C12.0158 8.81912 8.80385 12.0442 8.81141 16.0142ZM11.3331 16.0091C11.3313 15.0861 11.6032 14.1833 12.1145 13.4148C12.6258 12.6463 13.3535 12.0467 14.2055 11.6918C15.0576 11.3369 15.9958 11.2426 16.9014 11.4209C17.807 11.5992 18.6395 12.042 19.2934 12.6934C19.9474 13.3448 20.3935 14.1754 20.5754 15.0804C20.7572 15.9853 20.6667 16.9238 20.3151 17.7773C19.9636 18.6307 19.3669 19.3608 18.6004 19.8751C17.834 20.3894 16.9323 20.6649 16.0092 20.6667C15.3964 20.668 14.7892 20.5486 14.2225 20.3152C13.6558 20.0818 13.1406 19.7391 12.7064 19.3065C12.2722 18.874 11.9274 18.3602 11.6918 17.7944C11.4561 17.2287 11.3343 16.622 11.3331 16.0091Z" fill="white"/>
</svg>
