<svg width="32" height="32" viewBox="0 0 32 32" fill="none" xmlns="http://www.w3.org/2000/svg">
  <path fill-rule="evenodd" clip-rule="evenodd" d="M5.5 30H26.5C28.432 30 30 28.432 30 26.5V5.5C30 3.568 28.432 2 26.5 2H5.5C3.568 2 2 3.568 2 5.5V26.5C2 28.432 3.568 30 5.5 30ZM24.3975 6.54919L17.5164 14.5479H17.516L25 25.4395H19.4959L14.4562 18.1051L8.14657 25.4395H6.51587L13.7323 17.0516L6.51587 6.54919H12.0199L16.7921 13.4944L22.7669 6.54919H24.3975ZM14.5518 16.0983L15.283 17.1441V17.1445L20.2631 24.2678H22.7677L16.6649 15.5383L15.9337 14.4925L11.2388 7.77676H8.73413L14.5518 16.0983Z" fill="white"/>
</svg>
