<svg width="32" height="32" viewBox="0 0 32 32" fill="none" xmlns="http://www.w3.org/2000/svg">
  <path d="M30.9994 15.9963C30.9994 7.71247 24.2839 0.996948 16 0.996948C7.71616 0.996948 1.00064 7.71247 1.00064 15.9963C1.00064 23.0304 5.84364 28.933 12.3768 30.5541V20.5801H9.2839V15.9963H12.3768V14.0212C12.3768 8.91602 14.6873 6.54972 19.6995 6.54972C20.6498 6.54972 22.2896 6.73631 22.9603 6.9223V11.0771C22.6063 11.0399 21.9914 11.0213 21.2276 11.0213C18.7683 11.0213 17.8179 11.9531 17.8179 14.3752V15.9963H22.7173L21.8756 20.5801H17.8179V30.8859C25.245 29.9889 31 23.6652 31 15.9963H30.9994Z" fill="white"/>
</svg>
