<svg width="32" height="32" viewBox="0 0 32 32" fill="none" xmlns="http://www.w3.org/2000/svg">
  <path fill-rule="evenodd" clip-rule="evenodd" d="M1.96875 6.24716C1.96875 3.90152 3.87027 2 6.21591 2H25.7528C28.0985 2 30 3.90152 30 6.24716V24.9347C30 27.2803 28.0985 29.1818 25.7528 29.1818H6.21591C3.87027 29.1818 1.96875 27.2803 1.96875 24.9347V6.24716ZM21.3668 12.9646C21.0288 12.9646 20.7548 13.2384 20.7548 13.5765V14.729C20.7548 17.507 18.4947 19.7672 15.7166 19.7672C12.9386 19.7672 10.6784 17.5072 10.6784 14.729V13.5765C10.6784 13.2384 10.4044 12.9646 10.0665 12.9646C9.72862 12.9646 9.45461 13.2384 9.45461 13.5765V14.729C9.45461 17.9752 11.938 20.6521 15.1047 20.9606V24.5371H12.289C11.951 24.5371 11.677 24.8109 11.677 25.149C11.677 25.487 11.951 25.7609 12.289 25.7609H19.1441C19.482 25.7609 19.756 25.487 19.756 25.149C19.756 24.8109 19.482 24.5371 19.1441 24.5371H16.3283V20.9606C19.4951 20.652 21.9784 17.9754 21.9784 14.729V13.5765C21.9784 13.2385 21.7046 12.9647 21.3668 12.9646ZM19.3271 14.7278C19.3271 16.7218 17.7106 18.3382 15.7167 18.3382C13.7227 18.3382 12.1064 16.7216 12.1064 14.7278V8.78789C12.1064 6.7939 13.7227 5.17752 15.7167 5.17752C17.7107 5.17752 19.3271 6.79403 19.3271 8.78789V14.7278Z" fill="white"/>
</svg>
